<svg width="97" height="87" viewBox="0 0 97 87" fill="none" xmlns="http://www.w3.org/2000/svg">
<g filter="url(#filter0_f_22_272)">
<path d="M29.4172 49.7784C34.7375 49.7784 39.0504 45.5378 39.0504 40.3067C39.0504 35.0757 34.7375 30.8351 29.4172 30.8351C24.097 30.8351 19.7841 35.0757 19.7841 40.3067C19.7841 45.5378 24.097 49.7784 29.4172 49.7784Z" fill="#FA9E42"/>
</g>
<g filter="url(#filter1_f_22_272)">
<path d="M29.4171 51.9691C35.9679 51.9691 41.2784 46.7476 41.2784 40.3067C41.2784 33.8657 35.9679 28.6443 29.4171 28.6443C22.8664 28.6443 17.5559 33.8657 17.5559 40.3067C17.5559 46.7476 22.8664 51.9691 29.4171 51.9691Z" stroke="#FA9E42" stroke-width="10" stroke-linecap="round" stroke-dasharray="1 66"/>
</g>
<g filter="url(#filter2_f_22_272)">
<path d="M28.3966 38.4155C31.7705 36.6535 33.6791 33.695 32.6595 31.8076C31.6399 29.9201 28.0782 29.8184 24.7043 31.5804C21.3304 33.3424 19.4219 36.3008 20.4415 38.1883C21.4611 40.0757 25.0227 40.1774 28.3966 38.4155Z" fill="#F8E36F"/>
</g>
<g filter="url(#filter3_df_22_272)">
<g filter="url(#filter4_d_22_272)">
<path d="M48.2233 54.5161C48.0772 54.5361 47.9297 54.5462 47.7807 54.5464H37.3884C36.673 54.5509 35.9642 54.3146 35.3026 53.8509C34.6409 53.3872 34.0394 52.7054 33.5327 51.8444C33.0259 50.9834 32.6238 49.9603 32.3494 48.8337C32.0751 47.7071 31.9338 46.4992 31.9338 45.2793C31.9338 44.0594 32.0751 42.8515 32.3494 41.725C32.6238 40.5984 33.0259 39.5752 33.5327 38.7143C34.0394 37.8533 34.6409 37.1714 35.3026 36.7077C35.9642 36.244 36.673 36.0077 37.3884 36.0122H41.2632C42.5194 31.299 45.4127 28 48.7809 28C53.3019 28 56.9669 33.9427 56.9669 41.2732C56.9669 48.6037 53.3019 54.5464 48.7809 54.5464C48.5935 54.5464 48.4077 54.5363 48.2233 54.5161Z" fill="url(#paint0_linear_22_272)"/>
<path d="M48.7809 54.4175C49.3315 54.4175 49.8817 54.3276 50.4162 54.1502C50.9371 53.9774 51.4495 53.7195 51.9391 53.3838C52.4197 53.0541 52.8833 52.6461 53.3169 52.1711C53.7464 51.7007 54.1502 51.1604 54.5172 50.5654C54.8842 49.9704 55.2173 49.3158 55.5073 48.6197C55.8 47.9171 56.0515 47.166 56.2546 46.3873C56.4614 45.5944 56.6203 44.7646 56.7268 43.921C56.836 43.0555 56.8914 42.1646 56.8914 41.2731C56.8914 40.3817 56.836 39.4908 56.7268 38.6253C56.6203 37.7817 56.4614 36.952 56.2546 36.159C56.0515 35.3804 55.8 34.6293 55.5073 33.9267C55.2173 33.2306 54.8842 32.576 54.5172 31.981C54.1502 31.386 53.7464 30.8457 53.3169 30.3753C52.8833 29.9003 52.4197 29.4923 51.9391 29.1626C51.4495 28.8269 50.9371 28.569 50.4162 28.3962C49.8817 28.2188 49.3315 28.1289 48.7809 28.1289C47.166 28.1289 45.6063 28.8959 44.2706 30.3471C43.6267 31.0466 43.0481 31.891 42.5509 32.8567C42.0505 33.8285 41.6404 34.9081 41.3319 36.0655L41.3118 36.1411H41.2631H37.3884C36.6649 36.1411 35.9631 36.3827 35.3025 36.8591C34.985 37.0882 34.6788 37.3716 34.3923 37.7017C34.1086 38.0286 33.8417 38.404 33.5992 38.8176C33.3567 39.2312 33.1365 39.6862 32.9448 40.1701C32.7513 40.6587 32.585 41.1809 32.4508 41.7223C32.1713 42.8489 32.0297 44.0456 32.0297 45.2793C32.0297 46.513 32.1713 47.7097 32.4508 48.8363C32.585 49.3777 32.7513 49.9 32.9448 50.3885C33.1365 50.8724 33.3567 51.3274 33.5992 51.741C33.8417 52.1546 34.1086 52.53 34.3923 52.8569C34.6788 53.187 34.985 53.4704 35.3025 53.6995C35.9631 54.1759 36.6649 54.4175 37.3884 54.4175H47.7807C47.926 54.4175 48.0729 54.4075 48.2173 54.3877L48.2227 54.3869L48.2282 54.3875C48.411 54.4074 48.597 54.4175 48.7809 54.4175ZM48.7809 54.5464C48.5935 54.5464 48.4076 54.5362 48.2234 54.5161C48.0775 54.5361 47.9297 54.5464 47.7807 54.5464H37.3884C34.3871 54.5464 31.9541 50.3974 31.9541 45.2793C31.9541 40.1612 34.3871 36.0122 37.3884 36.0122H41.2631C42.5194 31.2984 45.4125 28 48.7809 28C53.3019 28 56.9669 33.9427 56.9669 41.2731C56.9669 48.6037 53.3019 54.5464 48.7809 54.5464Z" fill="white" fill-opacity="0.5"/>
</g>
</g>
<g filter="url(#filter5_f_22_272)">
<path d="M52.539 28.6748C52.6114 28.7371 51.0947 31.8052 50.2133 32.7587C49.332 33.7122 48.2482 34.1826 47.7924 33.81C47.3365 33.4373 47.681 32.3626 48.5624 31.409C49.4439 30.4554 52.4665 28.6125 52.539 28.6748Z" fill="#42A0F0"/>
<path d="M48.7194 32.0496C48.8079 32.1828 49.1144 32.1529 49.404 31.9828C49.6936 31.8126 49.8565 31.5666 49.768 31.4333C49.6794 31.3001 49.3729 31.33 49.0833 31.5002C48.7938 31.6703 48.6308 31.9163 48.7194 32.0496Z" fill="white"/>
<path d="M61.8568 28.6748C61.9293 28.7371 60.4126 31.8052 59.5312 32.7587C58.6499 33.7122 57.5661 34.1826 57.1102 33.81C56.6544 33.4373 56.9988 32.3626 57.8803 31.409C58.7617 30.4554 61.7844 28.6125 61.8568 28.6748Z" fill="#42A0F0"/>
<path d="M58.0372 32.0496C58.1258 32.1828 58.4323 32.1529 58.7219 31.9828C59.0115 31.8126 59.1744 31.5666 59.0859 31.4333C58.9973 31.3001 58.6908 31.33 58.4012 31.5002C58.1116 31.6703 57.9487 31.9163 58.0372 32.0496Z" fill="white"/>
<path d="M71.1746 28.6748C71.247 28.7371 69.7303 31.8052 68.849 32.7587C67.9676 33.7122 66.8838 34.1826 66.428 33.81C65.9721 33.4373 66.3166 32.3626 67.198 31.409C68.0795 30.4554 71.1022 28.6125 71.1746 28.6748Z" fill="#42A0F0"/>
<path d="M67.355 32.0496C67.4435 32.1828 67.7501 32.1529 68.0396 31.9828C68.3292 31.8126 68.4922 31.5666 68.4036 31.4333C68.3151 31.3001 68.0085 31.33 67.719 31.5002C67.4294 31.6703 67.2664 31.9163 67.355 32.0496Z" fill="white"/>
<path d="M62.953 35.1182C63.0254 35.1804 61.5088 38.2485 60.6274 39.202C59.746 40.1555 58.6623 40.626 58.2064 40.2533C57.7506 39.8806 58.095 38.806 58.9765 37.8524C59.8579 36.8988 62.8806 35.0559 62.953 35.1182Z" fill="#42A0F0"/>
<path d="M59.1333 38.4929C59.2218 38.6262 59.5284 38.5963 59.8179 38.4261C60.1075 38.2559 60.2705 38.0099 60.1819 37.8767C60.0934 37.7434 59.7869 37.7733 59.4973 37.9435C59.2077 38.1137 59.0448 38.3596 59.1333 38.4929Z" fill="white"/>
<path d="M52.539 35.1182C52.6114 35.1804 51.0947 38.2485 50.2133 39.202C49.332 40.1555 48.2482 40.626 47.7924 40.2533C47.3365 39.8806 47.681 38.806 48.5624 37.8524C49.4439 36.8988 52.4665 35.0559 52.539 35.1182Z" fill="#42A0F0"/>
<path d="M48.7194 38.4929C48.8079 38.6262 49.1144 38.5963 49.404 38.4261C49.6936 38.2559 49.8565 38.0099 49.768 37.8767C49.6794 37.7434 49.3729 37.7733 49.0833 37.9435C48.7938 38.1137 48.6308 38.3596 48.7194 38.4929Z" fill="white"/>
</g>
<defs>
<filter id="filter0_f_22_272" x="15.7841" y="26.8351" width="27.2664" height="26.9433" filterUnits="userSpaceOnUse" color-interpolation-filters="sRGB">
<feFlood flood-opacity="0" result="BackgroundImageFix"/>
<feBlend mode="normal" in="SourceGraphic" in2="BackgroundImageFix" result="shape"/>
<feGaussianBlur stdDeviation="2" result="effect1_foregroundBlur_22_272"/>
</filter>
<filter id="filter1_f_22_272" x="10.5559" y="21.6443" width="37.7225" height="37.3247" filterUnits="userSpaceOnUse" color-interpolation-filters="sRGB">
<feFlood flood-opacity="0" result="BackgroundImageFix"/>
<feBlend mode="normal" in="SourceGraphic" in2="BackgroundImageFix" result="shape"/>
<feGaussianBlur stdDeviation="1" result="effect1_foregroundBlur_22_272"/>
</filter>
<filter id="filter2_f_22_272" x="0.166992" y="10.3227" width="52.767" height="49.3505" filterUnits="userSpaceOnUse" color-interpolation-filters="sRGB">
<feFlood flood-opacity="0" result="BackgroundImageFix"/>
<feBlend mode="normal" in="SourceGraphic" in2="BackgroundImageFix" result="shape"/>
<feGaussianBlur stdDeviation="10" result="effect1_foregroundBlur_22_272"/>
</filter>
<filter id="filter3_df_22_272" x="11.9338" y="0" width="85.0331" height="86.5465" filterUnits="userSpaceOnUse" color-interpolation-filters="sRGB">
<feFlood flood-opacity="0" result="BackgroundImageFix"/>
<feColorMatrix in="SourceAlpha" type="matrix" values="0 0 0 0 0 0 0 0 0 0 0 0 0 0 0 0 0 0 127 0" result="hardAlpha"/>
<feOffset dx="10" dy="2"/>
<feGaussianBlur stdDeviation="15"/>
<feColorMatrix type="matrix" values="0 0 0 0 0.258824 0 0 0 0 0.627451 0 0 0 0 0.941176 0 0 0 0.596 0"/>
<feBlend mode="normal" in2="BackgroundImageFix" result="effect1_dropShadow_22_272"/>
<feBlend mode="normal" in="SourceGraphic" in2="effect1_dropShadow_22_272" result="shape"/>
<feGaussianBlur stdDeviation="2" result="effect2_foregroundBlur_22_272"/>
</filter>
<filter id="filter4_d_22_272" x="11.9338" y="0" width="85.0331" height="86.5465" filterUnits="userSpaceOnUse" color-interpolation-filters="sRGB">
<feFlood flood-opacity="0" result="BackgroundImageFix"/>
<feColorMatrix in="SourceAlpha" type="matrix" values="0 0 0 0 0 0 0 0 0 0 0 0 0 0 0 0 0 0 127 0" result="hardAlpha"/>
<feOffset dx="10" dy="2"/>
<feGaussianBlur stdDeviation="15"/>
<feColorMatrix type="matrix" values="0 0 0 0 0.501961 0 0 0 0 0.501961 0 0 0 0 0.501961 0 0 0 0.302 0"/>
<feBlend mode="normal" in2="BackgroundImageFix" result="effect1_dropShadow_22_272"/>
<feBlend mode="normal" in="SourceGraphic" in2="effect1_dropShadow_22_272" result="shape"/>
</filter>
<filter id="filter5_f_22_272" x="43.5911" y="24.6733" width="31.5861" height="19.7077" filterUnits="userSpaceOnUse" color-interpolation-filters="sRGB">
<feFlood flood-opacity="0" result="BackgroundImageFix"/>
<feBlend mode="normal" in="SourceGraphic" in2="BackgroundImageFix" result="shape"/>
<feGaussianBlur stdDeviation="2" result="effect1_foregroundBlur_22_272"/>
</filter>
<linearGradient id="paint0_linear_22_272" x1="42.0722" y1="31.3449" x2="54.1328" y2="51.8214" gradientUnits="userSpaceOnUse">
<stop stop-color="white" stop-opacity="0.596"/>
<stop offset="1" stop-color="#F7F7F7" stop-opacity="0.204"/>
</linearGradient>
</defs>
</svg>
