<svg width="172" height="128" viewBox="0 0 172 128" fill="none" xmlns="http://www.w3.org/2000/svg">
<g filter="url(#filter0_f_21_5637)">
<path d="M74.8415 88.8254C74.8415 88.8254 93.5864 89.8384 101.899 87.4256C110.212 85.0128 110.2 72.4838 101.899 69.3939C93.5981 66.3039 90.7602 77.3449 90.7602 77.3449" stroke="#D0D0D0" stroke-width="16" stroke-linecap="round"/>
<path d="M42.5978 102.359C42.5978 102.359 70.7736 99.8136 83.1952 102.359C95.6168 104.905 91.6616 112.208 85.7747 112.542C79.8878 112.875 74.4557 109.008 74.4557 109.008" stroke="#D0D0D0" stroke-width="16" stroke-linecap="round"/>
<path d="M102.568 102.339H113.77" stroke="#D0D0D0" stroke-width="16" stroke-linecap="round"/>
</g>
<g filter="url(#filter1_f_21_5637)">
<path d="M43.3309 78.1727C38.3971 78.1791 33.576 76.6988 29.4959 73.9249C25.7903 71.414 22.8296 67.9511 20.9249 63.9004C19.0203 59.8497 18.242 55.3607 18.672 50.9052C19.102 46.4497 20.7243 42.1924 23.3684 38.5806C26.0125 34.9688 29.5808 32.1361 33.6981 30.3801C36.744 29.0847 40.0209 28.4202 43.3309 28.4269C44.2968 28.427 45.2618 28.4831 46.2213 28.5949C45.6616 29.8185 45.2334 31.0981 44.9439 32.4121C44.6464 33.768 44.4965 35.1522 44.4969 36.5404C44.4911 40.3502 45.629 44.074 47.7633 47.2298C49.1388 49.2654 50.8917 51.0184 52.9272 52.394C53.9502 53.0851 55.0378 53.6754 56.1746 54.1568C58.529 55.1531 61.0601 55.6641 63.6166 55.6591C65.0961 55.6598 66.5708 55.4896 68.0112 55.1519C67.6716 59.8307 66.0134 64.3174 63.2285 68.0924C62.3277 69.3138 61.3177 70.4508 60.2109 71.4893C55.6426 75.7884 49.604 78.1793 43.3309 78.1727Z" fill="#713FFD"/>
</g>
<g filter="url(#filter2_f_21_5637)">
<path d="M38.9764 49.8788C44.5315 44.877 46.2607 37.7414 42.8388 33.9409C39.4169 30.1405 32.1396 31.1144 26.5845 36.1162C21.0294 41.118 19.3001 48.2537 22.7221 52.0541C26.144 55.8545 33.4213 54.8806 38.9764 49.8788Z" fill="#A586FC"/>
</g>
<g filter="url(#filter3_f_21_5637)">
<path d="M31.3048 22L32.1317 24.0411L34.3671 24.796L32.1317 25.5509L31.3048 27.5919L30.478 25.5509L28.2426 24.796L30.478 24.0411L31.3048 22Z" fill="url(#paint0_linear_21_5637)"/>
<path d="M68.3182 69.6647L69.0018 71.3171L70.8485 71.9281L69.0011 72.5391L68.3175 74.1915L67.6352 72.5391L65.7885 71.9281L67.6352 71.3171L68.3182 69.6647Z" fill="url(#paint1_linear_21_5637)"/>
<path d="M57.2697 28.3551L58.4174 29.8588L60.4627 29.9805L58.7526 31.1091L58.5111 32.9852L57.3634 31.4816L55.3181 31.3599L57.0281 30.2313L57.2697 28.3551Z" fill="url(#paint2_linear_21_5637)"/>
<path d="M16.3298 65.9535L17.5675 67.1184L19.4932 66.9261L18.0167 68.1782L17.9951 69.8777L16.7575 68.7128L14.8329 68.9046L16.3089 67.6527L16.3298 65.9535Z" fill="url(#paint3_linear_21_5637)"/>
<path d="M56.1876 45.0268L54.8272 45.303L54.0219 46.7131L53.9163 45.0927L52.8147 44.248L54.1751 43.9718L54.9804 42.5617L55.086 44.1821L56.1876 45.0268Z" fill="url(#paint4_linear_21_5637)"/>
</g>
<g filter="url(#filter4_df_21_5637)">
<g filter="url(#filter5_d_21_5637)">
<path d="M94.3342 95.4932C93.7048 95.5438 93.0693 95.5693 92.4276 95.5697H47.6594C44.5779 95.5812 41.5244 94.9842 38.6741 93.8129C35.8238 92.6416 33.2328 90.919 31.0498 88.7441C28.8667 86.5692 27.1346 83.9846 25.9526 81.1387C24.7707 78.2929 24.1623 75.2416 24.1623 72.16C24.1623 69.0785 24.7707 66.0272 25.9526 63.1813C27.1346 60.3354 28.8667 57.7509 31.0498 55.576C33.2328 53.401 35.8238 51.6785 38.6741 50.5072C41.5244 49.3359 44.5779 48.7389 47.6594 48.7504H64.3513C69.7629 36.8441 82.2264 28.5106 96.7363 28.5106C116.212 28.5106 132 43.5224 132 62.0401C132 80.5579 116.212 95.5697 96.7363 95.5697C95.929 95.5697 95.1283 95.5442 94.3342 95.4932Z" fill="url(#paint5_linear_21_5637)"/>
<path d="M96.7361 95.2442C99.1079 95.2442 101.478 95.017 103.781 94.569C106.025 94.1324 108.232 93.4809 110.341 92.6328C112.411 91.8 114.409 90.7694 116.277 89.5695C118.127 88.3811 119.866 87.0163 121.447 85.5132C123.028 84.0103 124.463 82.3566 125.712 80.5982C126.973 78.8233 128.056 76.926 128.931 74.9589C129.822 72.9559 130.507 70.8598 130.965 68.7289C131.436 66.5424 131.674 64.292 131.674 62.04C131.674 59.7881 131.436 57.5376 130.965 55.3512C130.507 53.2203 129.822 51.1243 128.931 49.1212C128.056 47.1542 126.973 45.2569 125.712 43.482C124.463 41.7236 123.028 40.07 121.447 38.5671C119.866 37.064 118.127 35.6992 116.277 34.5108C114.409 33.3109 112.411 32.2803 110.341 31.4476C108.232 30.5994 106.025 29.9479 103.781 29.5113C101.478 29.0633 99.1079 28.8361 96.7361 28.8361C89.7793 28.8361 83.0606 30.7738 77.3065 34.4396C74.5328 36.2067 72.0404 38.3396 69.8984 40.7791C67.7429 43.234 65.9762 45.9612 64.6474 48.885L64.5607 49.0758H64.3511H47.6593C44.5428 49.0758 41.5197 49.6861 38.674 50.8898C37.3063 51.4683 35.987 52.1844 34.753 53.0181C33.5306 53.8439 32.381 54.7924 31.3364 55.8371C30.2917 56.8817 29.3432 58.0313 28.5174 59.2537C27.6837 60.4877 26.9676 61.807 26.3891 63.1747C25.1854 66.0204 24.5751 69.0435 24.5751 72.16C24.5751 75.2765 25.1854 78.2996 26.3891 81.1453C26.9676 82.5131 27.6837 83.8323 28.5174 85.0663C29.3432 86.2888 30.2917 87.4383 31.3364 88.483C32.381 89.5277 33.5306 90.4761 34.753 91.302C35.987 92.1357 37.3063 92.8517 38.674 93.4302C41.5197 94.6339 44.5428 95.2442 47.6593 95.2442H92.4276C93.0536 95.2442 93.6863 95.2188 94.3082 95.1687L94.3316 95.1668L94.3551 95.1683C95.1427 95.2187 95.9438 95.2442 96.7361 95.2442ZM96.7361 95.5697C95.929 95.5697 95.1279 95.5439 94.3343 95.4932C93.7058 95.5438 93.0691 95.5697 92.4276 95.5697H47.6593C34.7305 95.5697 24.2496 85.0888 24.2496 72.16C24.2496 59.2312 34.7305 48.7503 47.6593 48.7503H64.3511C69.7628 36.8427 82.2257 28.5106 96.7361 28.5106C116.212 28.5106 132 43.5224 132 62.04C132 80.5579 116.212 95.5697 96.7361 95.5697Z" fill="white" fill-opacity="0.5"/>
</g>
</g>
<defs>
<filter id="filter0_f_21_5637" x="30.5973" y="56.8482" width="95.173" height="67.714" filterUnits="userSpaceOnUse" color-interpolation-filters="sRGB">
<feFlood flood-opacity="0" result="BackgroundImageFix"/>
<feBlend mode="normal" in="SourceGraphic" in2="BackgroundImageFix" result="shape"/>
<feGaussianBlur stdDeviation="2" result="effect1_foregroundBlur_21_5637"/>
</filter>
<filter id="filter1_f_21_5637" x="14.5568" y="24.4269" width="57.4545" height="57.7459" filterUnits="userSpaceOnUse" color-interpolation-filters="sRGB">
<feFlood flood-opacity="0" result="BackgroundImageFix"/>
<feBlend mode="normal" in="SourceGraphic" in2="BackgroundImageFix" result="shape"/>
<feGaussianBlur stdDeviation="2" result="effect1_foregroundBlur_21_5637"/>
</filter>
<filter id="filter2_f_21_5637" x="0.96521" y="11.6226" width="63.6305" height="62.7498" filterUnits="userSpaceOnUse" color-interpolation-filters="sRGB">
<feFlood flood-opacity="0" result="BackgroundImageFix"/>
<feBlend mode="normal" in="SourceGraphic" in2="BackgroundImageFix" result="shape"/>
<feGaussianBlur stdDeviation="10" result="effect1_foregroundBlur_21_5637"/>
</filter>
<filter id="filter3_f_21_5637" x="12.8329" y="20" width="60.0156" height="56.1915" filterUnits="userSpaceOnUse" color-interpolation-filters="sRGB">
<feFlood flood-opacity="0" result="BackgroundImageFix"/>
<feBlend mode="normal" in="SourceGraphic" in2="BackgroundImageFix" result="shape"/>
<feGaussianBlur stdDeviation="1" result="effect1_foregroundBlur_21_5637"/>
</filter>
<filter id="filter4_df_21_5637" x="4.16232" y="0.51059" width="167.838" height="127.059" filterUnits="userSpaceOnUse" color-interpolation-filters="sRGB">
<feFlood flood-opacity="0" result="BackgroundImageFix"/>
<feColorMatrix in="SourceAlpha" type="matrix" values="0 0 0 0 0 0 0 0 0 0 0 0 0 0 0 0 0 0 127 0" result="hardAlpha"/>
<feOffset dx="10" dy="2"/>
<feGaussianBlur stdDeviation="15"/>
<feColorMatrix type="matrix" values="0 0 0 0 0 0 0 0 0 0 0 0 0 0 0 0 0 0 0.25 0"/>
<feBlend mode="normal" in2="BackgroundImageFix" result="effect1_dropShadow_21_5637"/>
<feBlend mode="normal" in="SourceGraphic" in2="effect1_dropShadow_21_5637" result="shape"/>
<feGaussianBlur stdDeviation="2" result="effect2_foregroundBlur_21_5637"/>
</filter>
<filter id="filter5_d_21_5637" x="4.16232" y="0.51059" width="167.838" height="127.059" filterUnits="userSpaceOnUse" color-interpolation-filters="sRGB">
<feFlood flood-opacity="0" result="BackgroundImageFix"/>
<feColorMatrix in="SourceAlpha" type="matrix" values="0 0 0 0 0 0 0 0 0 0 0 0 0 0 0 0 0 0 127 0" result="hardAlpha"/>
<feOffset dx="10" dy="2"/>
<feGaussianBlur stdDeviation="15"/>
<feColorMatrix type="matrix" values="0 0 0 0 0.501961 0 0 0 0 0.501961 0 0 0 0 0.501961 0 0 0 0.302 0"/>
<feBlend mode="normal" in2="BackgroundImageFix" result="effect1_dropShadow_21_5637"/>
<feBlend mode="normal" in="SourceGraphic" in2="effect1_dropShadow_21_5637" result="shape"/>
</filter>
<linearGradient id="paint0_linear_21_5637" x1="31.3048" y1="22" x2="31.3048" y2="27.5919" gradientUnits="userSpaceOnUse">
<stop stop-color="#6B38FC"/>
<stop offset="1" stop-color="#9F7EFD"/>
</linearGradient>
<linearGradient id="paint1_linear_21_5637" x1="68.3185" y1="69.6647" x2="68.3185" y2="74.1915" gradientUnits="userSpaceOnUse">
<stop stop-color="#6B38FC"/>
<stop offset="1" stop-color="#9F7EFD"/>
</linearGradient>
<linearGradient id="paint2_linear_21_5637" x1="57.2697" y1="28.3551" x2="58.5111" y2="32.9852" gradientUnits="userSpaceOnUse">
<stop stop-color="#6B38FC"/>
<stop offset="1" stop-color="#9F7EFD"/>
</linearGradient>
<linearGradient id="paint3_linear_21_5637" x1="16.3301" y1="65.9534" x2="17.996" y2="69.8773" gradientUnits="userSpaceOnUse">
<stop stop-color="#6B38FC"/>
<stop offset="1" stop-color="#9F7EFD"/>
</linearGradient>
<linearGradient id="paint4_linear_21_5637" x1="56.1876" y1="45.0268" x2="52.8147" y2="44.248" gradientUnits="userSpaceOnUse">
<stop stop-color="#6B38FC"/>
<stop offset="1" stop-color="#9F7EFD"/>
</linearGradient>
<linearGradient id="paint5_linear_21_5637" x1="67.8365" y1="36.9601" x2="89.3352" y2="99.2051" gradientUnits="userSpaceOnUse">
<stop stop-color="white" stop-opacity="0.596"/>
<stop offset="1" stop-color="#F7F7F7" stop-opacity="0.204"/>
</linearGradient>
</defs>
</svg>
