<svg width="25" height="24" viewBox="0 0 25 24" fill="none" xmlns="http://www.w3.org/2000/svg">
<path d="M13.0185 4.208C12.729 3.9305 12.2715 3.9305 11.982 4.208L6.232 9.708C6.0105 9.92 5.9405 10.245 6.0545 10.5295C6.1685 10.814 6.4435 11 6.75 11H18.25C18.556 11 18.832 10.8135 18.9465 10.5295C19.0605 10.2455 18.99 9.92 18.769 9.708L13.0185 4.208ZM18.25 13H6.75C6.4435 13 6.168 13.1865 6.054 13.4705C5.94 13.7545 6.0105 14.08 6.2315 14.292L11.9815 19.792C12.1265 19.9305 12.313 20 12.5 20C12.687 20 12.8735 19.9305 13.0185 19.792L18.7685 14.292C18.9895 14.08 19.06 13.755 18.946 13.4705C18.832 13.1865 18.556 13 18.25 13Z" fill="#637394"/>
</svg>
