<svg width="32" height="32" viewBox="0 0 32 32" fill="none" xmlns="http://www.w3.org/2000/svg">
<path d="M27 4H5C2.79086 4 1 5.79086 1 8V24C1 26.2091 2.79086 28 5 28H27C29.2091 28 31 26.2091 31 24V8C31 5.79086 29.2091 4 27 4Z" fill="white"/>
<path d="M1.638 5.846H30.362C29.651 4.738 28.415 4 27 4H5C3.586 4 2.35 4.738 1.638 5.846Z" fill="#A62842"/>
<path d="M2.03 7.69189C2.022 7.79489 2 7.89389 2 7.99989V9.53889H31V7.99989C31 7.89489 30.978 7.79589 30.97 7.69189H2.03Z" fill="#A62842"/>
<path d="M2 11.385H31V13.231H2V11.385Z" fill="#A62842"/>
<path d="M2 15.0769H31V16.9229H2V15.0769Z" fill="#A62842"/>
<path d="M1 18.769H31V20.615H1V18.769Z" fill="#A62842"/>
<path d="M1 23.9999C1 24.1049 1.023 24.2039 1.031 24.3079H30.969C30.977 24.2049 31 24.1059 31 23.9999V22.4609H1V23.9999Z" fill="#A62842"/>
<path d="M30.362 26.1541H1.638C2.349 27.2621 3.585 28.0001 5 28.0001H27C28.414 28.0001 29.65 27.2621 30.362 26.1541Z" fill="#A62842"/>
<path d="M5 4H16V16.923H1V8C1 5.792 2.792 4 5 4Z" fill="#102D5E"/>
<path opacity="0.15" d="M27 4H5C2.791 4 1 5.791 1 8V24C1 26.209 2.791 28 5 28H27C29.209 28 31 26.209 31 24V8C31 5.791 29.209 4 27 4ZM30 24C30 25.654 28.654 27 27 27H5C3.346 27 2 25.654 2 24V8C2 6.346 3.346 5 5 5H27C28.654 5 30 6.346 30 8V24Z" fill="black"/>
<path opacity="0.2" d="M27 5H5C3.343 5 2 6.343 2 8V9C2 7.343 3.343 6 5 6H27C28.657 6 30 7.343 30 9V8C30 6.343 28.657 5 27 5Z" fill="white"/>
<path d="M4.60099 7.46289L5.19299 7.03289H4.46199L4.23599 6.33789L4.00999 7.03289H3.27899L3.86999 7.46289L3.64399 8.15789L4.23599 7.72889L4.82699 8.15789L4.60099 7.46289Z" fill="white"/>
<path d="M7.58 7.46289L8.172 7.03289H7.441L7.215 6.33789L6.989 7.03289H6.258L6.849 7.46289L6.623 8.15789L7.215 7.72889L7.806 8.15789L7.58 7.46289Z" fill="white"/>
<path d="M10.56 7.46289L11.151 7.03289H10.42L10.194 6.33789L9.968 7.03289H9.237L9.828 7.46289L9.603 8.15789L10.194 7.72889L10.785 8.15789L10.56 7.46289Z" fill="white"/>
<path d="M6.06602 9.28296L6.65802 8.85396H5.92702L5.70102 8.15796L5.47502 8.85396H4.74402L5.33502 9.28296L5.10902 9.97896L5.70102 9.54896L6.29202 9.97896L6.06602 9.28296Z" fill="white"/>
<path d="M9.04602 9.28296L9.63702 8.85396H8.90602L8.68002 8.15796L8.45402 8.85396H7.72302L8.31402 9.28296L8.08902 9.97896L8.68002 9.54896L9.27102 9.97896L9.04602 9.28296Z" fill="white"/>
<path d="M12.025 9.28296L12.616 8.85396H11.885L11.659 8.15796L11.433 8.85396H10.702L11.294 9.28296L11.068 9.97896L11.659 9.54896L12.251 9.97896L12.025 9.28296Z" fill="white"/>
<path d="M6.06602 12.9241L6.65802 12.4941H5.92702L5.70102 11.7991L5.47502 12.4941H4.74402L5.33502 12.9241L5.10902 13.6191L5.70102 13.1901L6.29202 13.6191L6.06602 12.9241Z" fill="white"/>
<path d="M9.04602 12.9241L9.63702 12.4941H8.90602L8.68002 11.7991L8.45402 12.4941H7.72302L8.31402 12.9241L8.08902 13.6191L8.68002 13.1901L9.27102 13.6191L9.04602 12.9241Z" fill="white"/>
<path d="M12.025 12.9241L12.616 12.4941H11.885L11.659 11.7991L11.433 12.4941H10.702L11.294 12.9241L11.068 13.6191L11.659 13.1901L12.251 13.6191L12.025 12.9241Z" fill="white"/>
<path d="M13.539 7.46289L14.13 7.03289H13.399L13.173 6.33789L12.947 7.03289H12.216L12.808 7.46289L12.582 8.15789L13.173 7.72889L13.765 8.15789L13.539 7.46289Z" fill="white"/>
<path d="M4.60099 11.104L5.19299 10.674H4.46199L4.23599 9.979L4.00999 10.674H3.27899L3.86999 11.104L3.64399 11.799L4.23599 11.369L4.82699 11.799L4.60099 11.104Z" fill="white"/>
<path d="M7.58 11.104L8.172 10.674H7.441L7.215 9.979L6.989 10.674H6.258L6.849 11.104L6.623 11.799L7.215 11.369L7.806 11.799L7.58 11.104Z" fill="white"/>
<path d="M10.56 11.104L11.151 10.674H10.42L10.194 9.979L9.968 10.674H9.237L9.828 11.104L9.603 11.799L10.194 11.369L10.785 11.799L10.56 11.104Z" fill="white"/>
<path d="M13.539 11.104L14.13 10.674H13.399L13.173 9.979L12.947 10.674H12.216L12.808 11.104L12.582 11.799L13.173 11.369L13.765 11.799L13.539 11.104Z" fill="white"/>
<path d="M4.60099 14.7439L5.19299 14.3149H4.46199L4.23599 13.6189L4.00999 14.3149H3.27899L3.86999 14.7439L3.64399 15.4399L4.23599 15.0099L4.82699 15.4399L4.60099 14.7439Z" fill="white"/>
<path d="M7.58 14.7439L8.172 14.3149H7.441L7.215 13.6189L6.989 14.3149H6.258L6.849 14.7439L6.623 15.4399L7.215 15.0099L7.806 15.4399L7.58 14.7439Z" fill="white"/>
<path d="M10.56 14.7439L11.151 14.3149H10.42L10.194 13.6189L9.968 14.3149H9.237L9.828 14.7439L9.603 15.4399L10.194 15.0099L10.785 15.4399L10.56 14.7439Z" fill="white"/>
<path d="M13.539 14.7439L14.13 14.3149H13.399L13.173 13.6189L12.947 14.3149H12.216L12.808 14.7439L12.582 15.4399L13.173 15.0099L13.765 15.4399L13.539 14.7439Z" fill="white"/>
</svg>
